<svg xmlns="http://www.w3.org/2000/svg" viewBox="0 0 96 96" role="img" aria-label="DaiBoq mark">
  <defs>
    <linearGradient id="ivory" x1="0" x2="1" y1="0" y2="1">
      <stop offset="0" stop-color="#fff6df"/>
      <stop offset="1" stop-color="#d9cdb8"/>
    </linearGradient>
  </defs>
  <g fill="url(#ivory)">
    <path d="M17 19h25c21 0 34 13 34 34v9c0 21-13 34-34 34H17V19Zm14 14v49h11c13 0 20-7 20-20v-9c0-13-7-20-20-20H31Z"/>
    <path d="M45 29h20c11 0 17 6 17 16v51H67V82c-5 8-12 12-23 12-15 0-25-8-25-21s10-21 28-21h20v-6c0-6-4-9-12-9H45V29Zm7 36c-7 0-10 2-10 7s3 7 10 7h5c10 0 10-7 10-10v-4H52Z" opacity=".68"/>
    <rect x="61" y="8" width="18" height="18" rx="7"/>
  </g>
</svg>
